<mxfile host="app.diagrams.net" agent="Mozilla/5.0 (Windows NT 10.0; Win64; x64) AppleWebKit/537.36 (KHTML, like Gecko) Chrome/136.0.0.0 Safari/537.36" version="27.0.6">
  <diagram name="Page-1" id="Nc92r9vgqXUmCA67eesn">
    <mxGraphModel dx="999" dy="2100" grid="1" gridSize="10" guides="1" tooltips="1" connect="1" arrows="1" fold="1" page="1" pageScale="1" pageWidth="850" pageHeight="1100" math="0" shadow="0">
      <root>
        <mxCell id="0" />
        <mxCell id="1" parent="0" />
        <mxCell id="hUbwgB6e-zVBFXXmExjM-37" value="" style="rounded=0;whiteSpace=wrap;html=1;fillColor=none;strokeColor=#82b366;dashed=1;dashPattern=1 1;strokeWidth=3;glass=0;" vertex="1" parent="1">
          <mxGeometry x="62.5" y="363" width="370" height="100" as="geometry" />
        </mxCell>
        <mxCell id="hUbwgB6e-zVBFXXmExjM-35" value="" style="rounded=0;whiteSpace=wrap;html=1;fillColor=none;strokeColor=#9673a6;dashed=1;dashPattern=1 1;strokeWidth=3;glass=0;" vertex="1" parent="1">
          <mxGeometry x="452.5" y="140" width="370" height="150" as="geometry" />
        </mxCell>
        <mxCell id="hUbwgB6e-zVBFXXmExjM-34" value="" style="rounded=0;whiteSpace=wrap;html=1;fillColor=none;strokeColor=light-dark(#f5af00, #996500);dashed=1;dashPattern=1 1;strokeWidth=3;glass=0;" vertex="1" parent="1">
          <mxGeometry x="63" y="87" width="370" height="153" as="geometry" />
        </mxCell>
        <mxCell id="hUbwgB6e-zVBFXXmExjM-18" style="edgeStyle=orthogonalEdgeStyle;rounded=0;orthogonalLoop=1;jettySize=auto;html=1;exitX=0.5;exitY=1;exitDx=0;exitDy=0;entryX=0.5;entryY=0;entryDx=0;entryDy=0;" edge="1" parent="1" source="hUbwgB6e-zVBFXXmExjM-1" target="hUbwgB6e-zVBFXXmExjM-2">
          <mxGeometry relative="1" as="geometry" />
        </mxCell>
        <mxCell id="hUbwgB6e-zVBFXXmExjM-1" value="Start" style="ellipse;whiteSpace=wrap;html=1;" vertex="1" parent="1">
          <mxGeometry x="215" y="40" width="65" height="40" as="geometry" />
        </mxCell>
        <mxCell id="hUbwgB6e-zVBFXXmExjM-19" style="edgeStyle=orthogonalEdgeStyle;rounded=0;orthogonalLoop=1;jettySize=auto;html=1;" edge="1" parent="1" source="hUbwgB6e-zVBFXXmExjM-2" target="hUbwgB6e-zVBFXXmExjM-3">
          <mxGeometry relative="1" as="geometry" />
        </mxCell>
        <mxCell id="hUbwgB6e-zVBFXXmExjM-20" style="edgeStyle=orthogonalEdgeStyle;rounded=0;orthogonalLoop=1;jettySize=auto;html=1;entryX=0.5;entryY=0;entryDx=0;entryDy=0;" edge="1" parent="1" source="hUbwgB6e-zVBFXXmExjM-2" target="hUbwgB6e-zVBFXXmExjM-11">
          <mxGeometry relative="1" as="geometry" />
        </mxCell>
        <mxCell id="hUbwgB6e-zVBFXXmExjM-2" value="Deploy application using default settings" style="rounded=0;whiteSpace=wrap;html=1;" vertex="1" parent="1">
          <mxGeometry x="70" y="100" width="355" height="30" as="geometry" />
        </mxCell>
        <mxCell id="hUbwgB6e-zVBFXXmExjM-25" style="edgeStyle=orthogonalEdgeStyle;rounded=0;orthogonalLoop=1;jettySize=auto;html=1;exitX=0.5;exitY=1;exitDx=0;exitDy=0;entryX=0.5;entryY=0;entryDx=0;entryDy=0;" edge="1" parent="1" source="hUbwgB6e-zVBFXXmExjM-3" target="hUbwgB6e-zVBFXXmExjM-4">
          <mxGeometry relative="1" as="geometry" />
        </mxCell>
        <mxCell id="hUbwgB6e-zVBFXXmExjM-3" value="Admin panel publicly accessible" style="rounded=0;whiteSpace=wrap;html=1;" vertex="1" parent="1">
          <mxGeometry x="70" y="150" width="355" height="30" as="geometry" />
        </mxCell>
        <mxCell id="hUbwgB6e-zVBFXXmExjM-26" style="edgeStyle=orthogonalEdgeStyle;rounded=0;orthogonalLoop=1;jettySize=auto;html=1;exitX=0.5;exitY=1;exitDx=0;exitDy=0;entryX=0.5;entryY=0;entryDx=0;entryDy=0;" edge="1" parent="1" source="hUbwgB6e-zVBFXXmExjM-4" target="hUbwgB6e-zVBFXXmExjM-5">
          <mxGeometry relative="1" as="geometry" />
        </mxCell>
        <mxCell id="hUbwgB6e-zVBFXXmExjM-4" value="Default credentials retained" style="rounded=0;whiteSpace=wrap;html=1;" vertex="1" parent="1">
          <mxGeometry x="70" y="200" width="355" height="30" as="geometry" />
        </mxCell>
        <mxCell id="hUbwgB6e-zVBFXXmExjM-27" style="edgeStyle=orthogonalEdgeStyle;rounded=0;orthogonalLoop=1;jettySize=auto;html=1;exitX=0.5;exitY=1;exitDx=0;exitDy=0;entryX=0.5;entryY=0;entryDx=0;entryDy=0;" edge="1" parent="1" source="hUbwgB6e-zVBFXXmExjM-5" target="hUbwgB6e-zVBFXXmExjM-6">
          <mxGeometry relative="1" as="geometry" />
        </mxCell>
        <mxCell id="hUbwgB6e-zVBFXXmExjM-5" value="Verbose error messages are active" style="rounded=0;whiteSpace=wrap;html=1;" vertex="1" parent="1">
          <mxGeometry x="70" y="265" width="355" height="30" as="geometry" />
        </mxCell>
        <mxCell id="hUbwgB6e-zVBFXXmExjM-28" style="edgeStyle=orthogonalEdgeStyle;rounded=0;orthogonalLoop=1;jettySize=auto;html=1;exitX=0.5;exitY=1;exitDx=0;exitDy=0;entryX=0.5;entryY=0;entryDx=0;entryDy=0;" edge="1" parent="1" source="hUbwgB6e-zVBFXXmExjM-6" target="hUbwgB6e-zVBFXXmExjM-7">
          <mxGeometry relative="1" as="geometry" />
        </mxCell>
        <mxCell id="hUbwgB6e-zVBFXXmExjM-6" value="Missing HTTP security headers" style="rounded=0;whiteSpace=wrap;html=1;" vertex="1" parent="1">
          <mxGeometry x="70" y="320" width="355" height="30" as="geometry" />
        </mxCell>
        <mxCell id="hUbwgB6e-zVBFXXmExjM-29" style="edgeStyle=orthogonalEdgeStyle;rounded=0;orthogonalLoop=1;jettySize=auto;html=1;exitX=0.5;exitY=1;exitDx=0;exitDy=0;entryX=0.5;entryY=0;entryDx=0;entryDy=0;" edge="1" parent="1" source="hUbwgB6e-zVBFXXmExjM-7" target="hUbwgB6e-zVBFXXmExjM-8">
          <mxGeometry relative="1" as="geometry" />
        </mxCell>
        <mxCell id="hUbwgB6e-zVBFXXmExjM-7" value="Cloud storage misconfigured (public access)" style="rounded=0;whiteSpace=wrap;html=1;" vertex="1" parent="1">
          <mxGeometry x="70" y="373" width="355" height="30" as="geometry" />
        </mxCell>
        <mxCell id="hUbwgB6e-zVBFXXmExjM-30" style="edgeStyle=orthogonalEdgeStyle;rounded=0;orthogonalLoop=1;jettySize=auto;html=1;" edge="1" parent="1" source="hUbwgB6e-zVBFXXmExjM-8" target="hUbwgB6e-zVBFXXmExjM-9">
          <mxGeometry relative="1" as="geometry" />
        </mxCell>
        <mxCell id="hUbwgB6e-zVBFXXmExjM-8" value="Attacker scans and detects misconfiguration" style="rounded=0;whiteSpace=wrap;html=1;" vertex="1" parent="1">
          <mxGeometry x="70" y="423" width="355" height="30" as="geometry" />
        </mxCell>
        <mxCell id="hUbwgB6e-zVBFXXmExjM-31" style="edgeStyle=orthogonalEdgeStyle;rounded=0;orthogonalLoop=1;jettySize=auto;html=1;entryX=0.5;entryY=0;entryDx=0;entryDy=0;" edge="1" parent="1" source="hUbwgB6e-zVBFXXmExjM-9" target="hUbwgB6e-zVBFXXmExjM-10">
          <mxGeometry relative="1" as="geometry" />
        </mxCell>
        <mxCell id="hUbwgB6e-zVBFXXmExjM-9" value="Attacker exploits the weaknesses" style="rounded=0;whiteSpace=wrap;html=1;" vertex="1" parent="1">
          <mxGeometry x="70" y="473" width="355" height="30" as="geometry" />
        </mxCell>
        <mxCell id="hUbwgB6e-zVBFXXmExjM-32" style="edgeStyle=orthogonalEdgeStyle;rounded=0;orthogonalLoop=1;jettySize=auto;html=1;entryX=0.5;entryY=0;entryDx=0;entryDy=0;" edge="1" parent="1" source="hUbwgB6e-zVBFXXmExjM-10" target="hUbwgB6e-zVBFXXmExjM-16">
          <mxGeometry relative="1" as="geometry" />
        </mxCell>
        <mxCell id="hUbwgB6e-zVBFXXmExjM-10" value="Sensitive data breached or system compromised" style="rounded=0;whiteSpace=wrap;html=1;" vertex="1" parent="1">
          <mxGeometry x="70" y="523" width="355" height="30" as="geometry" />
        </mxCell>
        <mxCell id="hUbwgB6e-zVBFXXmExjM-21" style="edgeStyle=orthogonalEdgeStyle;rounded=0;orthogonalLoop=1;jettySize=auto;html=1;exitX=0.5;exitY=1;exitDx=0;exitDy=0;entryX=0.5;entryY=0;entryDx=0;entryDy=0;" edge="1" parent="1" source="hUbwgB6e-zVBFXXmExjM-11" target="hUbwgB6e-zVBFXXmExjM-12">
          <mxGeometry relative="1" as="geometry" />
        </mxCell>
        <mxCell id="hUbwgB6e-zVBFXXmExjM-11" value="Directory listing enabled on server" style="rounded=0;whiteSpace=wrap;html=1;" vertex="1" parent="1">
          <mxGeometry x="460" y="150" width="355" height="30" as="geometry" />
        </mxCell>
        <mxCell id="hUbwgB6e-zVBFXXmExjM-22" style="edgeStyle=orthogonalEdgeStyle;rounded=0;orthogonalLoop=1;jettySize=auto;html=1;exitX=0.5;exitY=1;exitDx=0;exitDy=0;entryX=0.5;entryY=0;entryDx=0;entryDy=0;" edge="1" parent="1" source="hUbwgB6e-zVBFXXmExjM-12" target="hUbwgB6e-zVBFXXmExjM-13">
          <mxGeometry relative="1" as="geometry" />
        </mxCell>
        <mxCell id="hUbwgB6e-zVBFXXmExjM-12" value="Attacker downloads and reverse engineers class files" style="rounded=0;whiteSpace=wrap;html=1;" vertex="1" parent="1">
          <mxGeometry x="460" y="200" width="355" height="30" as="geometry" />
        </mxCell>
        <mxCell id="hUbwgB6e-zVBFXXmExjM-23" style="edgeStyle=orthogonalEdgeStyle;rounded=0;orthogonalLoop=1;jettySize=auto;html=1;exitX=0.5;exitY=1;exitDx=0;exitDy=0;entryX=0.5;entryY=0;entryDx=0;entryDy=0;" edge="1" parent="1" source="hUbwgB6e-zVBFXXmExjM-13" target="hUbwgB6e-zVBFXXmExjM-15">
          <mxGeometry relative="1" as="geometry" />
        </mxCell>
        <mxCell id="hUbwgB6e-zVBFXXmExjM-13" value="Access control flaw discovered" style="rounded=0;whiteSpace=wrap;html=1;" vertex="1" parent="1">
          <mxGeometry x="460" y="250" width="355" height="30" as="geometry" />
        </mxCell>
        <mxCell id="hUbwgB6e-zVBFXXmExjM-24" style="edgeStyle=orthogonalEdgeStyle;rounded=0;orthogonalLoop=1;jettySize=auto;html=1;exitX=0.5;exitY=1;exitDx=0;exitDy=0;entryX=0.5;entryY=0;entryDx=0;entryDy=0;" edge="1" parent="1" source="hUbwgB6e-zVBFXXmExjM-15" target="hUbwgB6e-zVBFXXmExjM-17">
          <mxGeometry relative="1" as="geometry" />
        </mxCell>
        <mxCell id="hUbwgB6e-zVBFXXmExjM-15" value="Sensitive data breached or system compromised" style="rounded=0;whiteSpace=wrap;html=1;" vertex="1" parent="1">
          <mxGeometry x="460" y="300" width="355" height="30" as="geometry" />
        </mxCell>
        <mxCell id="hUbwgB6e-zVBFXXmExjM-16" value="End" style="ellipse;whiteSpace=wrap;html=1;" vertex="1" parent="1">
          <mxGeometry x="215" y="573" width="65" height="40" as="geometry" />
        </mxCell>
        <mxCell id="hUbwgB6e-zVBFXXmExjM-17" value="End" style="ellipse;whiteSpace=wrap;html=1;" vertex="1" parent="1">
          <mxGeometry x="605" y="350" width="65" height="40" as="geometry" />
        </mxCell>
        <mxCell id="hUbwgB6e-zVBFXXmExjM-33" value="&lt;b&gt;Legend:&lt;/b&gt;&lt;div&gt;🟧 Scenario 1: Default Admin App&lt;b&gt;&lt;/b&gt;&lt;/div&gt;&lt;div&gt;🟪 Scenario 2: Directory Listing &amp;amp; Reverse Engineering&lt;/div&gt;&lt;div&gt;🟦 Scenario 3: Verbose Error Messages&lt;/div&gt;&lt;div&gt;🟩 Scenario 4: Cloud Storage Exposure&lt;/div&gt;" style="rounded=0;whiteSpace=wrap;html=1;dashed=1;dashPattern=8 8;align=left;" vertex="1" parent="1">
          <mxGeometry x="517.5" y="470" width="305" height="80" as="geometry" />
        </mxCell>
        <mxCell id="hUbwgB6e-zVBFXXmExjM-36" value="" style="rounded=0;whiteSpace=wrap;html=1;fillColor=none;strokeColor=#6c8ebf;dashed=1;dashPattern=1 1;strokeWidth=3;glass=0;" vertex="1" parent="1">
          <mxGeometry x="63" y="253" width="370" height="54" as="geometry" />
        </mxCell>
        <mxCell id="hUbwgB6e-zVBFXXmExjM-38" value="S1" style="text;html=1;align=center;verticalAlign=middle;resizable=0;points=[];autosize=1;strokeColor=none;fillColor=none;" vertex="1" parent="1">
          <mxGeometry x="30" y="87" width="40" height="30" as="geometry" />
        </mxCell>
        <mxCell id="hUbwgB6e-zVBFXXmExjM-39" value="S3" style="text;html=1;align=center;verticalAlign=middle;resizable=0;points=[];autosize=1;strokeColor=none;fillColor=none;" vertex="1" parent="1">
          <mxGeometry x="30" y="253" width="40" height="30" as="geometry" />
        </mxCell>
        <mxCell id="hUbwgB6e-zVBFXXmExjM-40" value="S4" style="text;html=1;align=center;verticalAlign=middle;resizable=0;points=[];autosize=1;strokeColor=none;fillColor=none;" vertex="1" parent="1">
          <mxGeometry x="30" y="363" width="40" height="30" as="geometry" />
        </mxCell>
        <mxCell id="hUbwgB6e-zVBFXXmExjM-41" value="S2" style="text;html=1;align=center;verticalAlign=middle;resizable=0;points=[];autosize=1;strokeColor=none;fillColor=none;" vertex="1" parent="1">
          <mxGeometry x="782.5" y="117" width="40" height="30" as="geometry" />
        </mxCell>
        <mxCell id="hUbwgB6e-zVBFXXmExjM-42" value="Flowchart: Security Misconfiguration Leading to Data Breach (OWASP A05:2021)" style="text;html=1;align=center;verticalAlign=middle;resizable=0;points=[];autosize=1;strokeColor=none;fillColor=none;fontStyle=1" vertex="1" parent="1">
          <mxGeometry x="195" y="-20" width="460" height="30" as="geometry" />
        </mxCell>
      </root>
    </mxGraphModel>
  </diagram>
</mxfile>
